# Blender 5.1.2
# www.blender.org
mtllib Stanok.mtl
o Table
v -0.977465 -0.391543 0.999877
v -0.977465 -0.002827 0.999877
v -0.977465 -0.391543 -0.160679
v -0.977465 -0.002827 -0.160679
v 1.000000 -0.391543 0.999877
v 1.000000 -0.002827 0.999877
v 1.000000 -0.391543 -0.160679
v 1.000000 -0.002827 -0.160679
v 0.011268 -0.391543 -0.160679
v 0.011268 -0.002827 -0.160679
v 0.011268 -0.391543 0.999877
v 0.011268 -0.002827 0.999877
v -0.977465 0.920500 0.999877
v -0.977465 0.920500 -0.160679
v 0.011268 0.920500 0.999877
v 0.011268 0.920500 -0.160679
v 0.797582 0.247567 -0.160679
v 0.797582 -0.391543 0.999877
v 0.797582 -0.391543 -0.160679
v 0.797582 0.247567 0.999877
v 0.275968 -0.391543 -0.160679
v 0.275968 0.247567 0.999877
v 0.275968 0.247567 -0.160679
v 0.275968 -0.391543 0.999877
v 0.275968 0.419713 -0.160679
v 0.797582 0.419713 -0.160679
v 0.797582 0.419713 0.999877
v 0.275968 0.419713 0.999877
v -0.977465 1.112207 0.999877
v -0.977465 1.112207 -0.160679
v 0.011268 1.112207 0.999877
v 0.011268 1.112207 -0.160679
v -1.259157 0.920500 0.999877
v -1.259157 0.920500 -0.160679
v -1.259157 1.112207 0.999877
v -1.259157 1.112207 -0.160679
vn -1.0000 -0.0000 -0.0000
vn -0.0000 -0.0000 -1.0000
vn 1.0000 -0.0000 -0.0000
vn -0.0000 -0.0000 1.0000
vn -0.0000 -1.0000 -0.0000
vn -0.6872 0.7265 -0.0000
vn 0.7777 0.6287 -0.0000
vn -0.0000 1.0000 -0.0000
vt 0.375000 0.000000
vt 0.625000 0.000000
vt 0.625000 0.250000
vt 0.375000 0.250000
vt 0.375000 0.474409
vt 0.625000 0.474409
vt 0.625000 0.500000
vt 0.375000 0.500000
vt 0.625000 0.750000
vt 0.375000 0.750000
vt 0.375000 0.875000
vt 0.625000 0.875000
vt 0.625000 1.000000
vt 0.375000 1.000000
vt 0.349409 0.500000
vt 0.349409 0.750000
vt 0.750000 0.750000
vt 0.750000 0.500000
vt 0.716535 0.500000
vt 0.716535 0.750000
vt 0.125000 0.500000
vt 0.250000 0.500000
vt 0.250000 0.750000
vt 0.125000 0.750000
vt 0.375000 0.841535
vt 0.625000 0.841535
vt 0.625000 0.375000
vt 0.375000 0.375000
vt 0.625000 0.775591
vt 0.375000 0.775591
vt 0.650591 0.500000
vt 0.650591 0.750000
vt 0.283465 0.500000
vt 0.283465 0.750000
vt 0.375000 0.408465
vt 0.625000 0.408465
vt 0.875000 0.500000
vt 0.875000 0.750000
s 0
f 1/1/1 2/2/1 4/3/1 3/4/1
f 19/5/2 17/6/2 8/7/2 7/8/2
f 7/8/3 8/7/3 6/9/3 5/10/3
f 11/11/4 12/12/4 2/13/4 1/14/4
f 19/15/5 7/8/5 5/10/5 18/16/5
f 12/17/3 10/18/3 16/18/3 15/17/3
f 23/19/6 10/18/6 12/17/6 22/20/6
f 3/21/5 9/22/5 11/23/5 1/24/5
f 24/25/4 22/26/4 12/12/4 11/11/4
f 3/4/2 4/3/2 10/27/2 9/28/2
f 15/17/3 16/18/3 32/18/3 31/17/3
f 4/3/1 2/2/1 13/2/1 14/3/1
f 10/27/2 4/3/2 14/3/2 16/27/2
f 2/13/4 12/12/4 15/12/4 13/13/4
f 5/10/4 6/9/4 20/29/4 18/30/4
f 8/7/7 17/31/7 20/32/7 6/9/7
f 21/33/5 19/15/5 18/16/5 24/34/5
f 21/35/2 23/36/2 17/6/2 19/5/2
f 9/28/2 10/27/2 23/36/2 21/35/2
f 9/22/5 21/33/5 24/34/5 11/23/5
f 18/30/4 20/29/4 22/26/4 24/25/4
f 23/19/1 22/20/1 28/20/1 25/19/1
f 26/31/8 25/19/8 28/20/8 27/32/8
f 17/6/2 23/36/2 25/36/2 26/6/2
f 22/26/4 20/29/4 27/29/4 28/26/4
f 20/32/3 17/31/3 26/31/3 27/32/3
f 32/18/8 30/37/8 29/38/8 31/17/8
f 13/13/4 15/12/4 31/12/4 29/13/4
f 16/27/2 14/3/2 30/3/2 32/27/2
f 29/38/8 30/37/8 36/37/8 35/38/8
f 34/3/1 33/2/1 35/2/1 36/3/1
f 30/3/2 14/3/2 34/3/2 36/3/2
f 14/3/5 13/2/5 33/2/5 34/3/5
f 13/13/4 29/13/4 35/13/4 33/13/4
o Object
v -0.785823 1.107363 0.328140
v -0.518763 1.783361 0.328140
v -0.785823 1.107363 -0.073752
v -0.518763 1.783361 -0.073752
v 0.571646 1.107363 0.328140
v 0.571646 1.783361 0.328140
v 0.571646 1.107363 -0.073752
v 0.571646 1.783361 -0.073752
v -0.785823 1.483446 0.328140
v -0.785823 1.483446 -0.073752
v 0.571646 1.483446 -0.073752
v 0.571646 1.483446 0.328140
v -1.668461 1.107363 -0.073752
v -1.668461 1.107363 0.328140
v -0.785823 1.483446 -0.073752
v -1.664943 1.157407 -0.073752
v -1.394463 1.312425 -0.073752
v -1.092495 1.401322 -0.073752
v -0.785823 1.483446 0.328140
v -1.092495 1.401322 0.328140
v -1.394463 1.312425 0.328140
v -1.664943 1.157407 0.328140
v -1.633804 1.193772 -0.073752
v -1.579535 1.233568 -0.073752
v -1.579535 1.233568 0.328140
v -1.633804 1.193772 0.328140
v -1.668461 1.107363 -0.073752
v -1.666340 1.137531 -0.073752
v -1.666340 1.137531 0.328140
v -1.668461 1.107363 0.328140
vn -0.7468 0.6650 -0.0000
vn -0.0000 -0.0000 -1.0000
vn 1.0000 -0.0000 -0.0000
vn -0.0000 -0.0000 1.0000
vn -0.0000 -1.0000 -0.0000
vn -0.0000 1.0000 -0.0000
vn -0.2587 0.9660 -0.0000
vn -0.2824 0.9593 -0.0000
vn -0.5913 0.8064 -0.0000
vn -0.3920 0.9200 -0.0000
vn -0.7596 0.6504 -0.0000
vn -0.9975 0.0701 -0.0000
vt 0.514084 0.000000
vt 0.625000 0.000000
vt 0.625000 0.250000
vt 0.514084 0.250000
vt 0.625000 0.500000
vt 0.514084 0.500000
vt 0.625000 0.750000
vt 0.514084 0.750000
vt 0.625000 1.000000
vt 0.514085 1.000000
vt 0.125000 0.500000
vt 0.375000 0.500000
vt 0.375000 0.750000
vt 0.125000 0.750000
vt 0.875000 0.500000
vt 0.875000 0.750000
vt 0.375000 1.000000
vt 0.375000 0.250000
vt 0.513997 0.250000
vt 0.512203 0.250000
vt 0.458204 0.250000
vt 0.460030 0.000000
vt 0.489999 0.000000
vt 0.487118 0.250000
vt 0.424117 0.250000
vt 0.424245 0.000000
vt 0.375000 0.000000
vt 0.404686 0.000000
vt 0.404609 0.250000
vt 0.423861 1.000000
vt 0.404455 1.000000
vt 0.513821 1.000000
vt 0.508439 1.000000
vt 0.481358 1.000000
vt 0.454552 1.000000
s 0
f 45/39/9 38/40/9 40/41/9 46/42/9
f 46/42/10 40/41/10 44/43/10 47/44/10
f 47/44/11 44/43/11 42/45/11 48/46/11
f 48/46/12 42/45/12 38/47/12 45/48/12
f 39/49/13 43/50/13 41/51/13 37/52/13
f 44/43/14 40/53/14 38/54/14 42/45/14
f 41/51/12 48/46/12 45/48/12 37/55/12
f 43/50/11 47/44/11 48/46/11 41/51/11
f 39/56/10 46/42/10 47/44/10 43/50/10
f 39/49/13 37/52/13 50/52/13 49/49/13
f 55/39/15 51/42/15 54/57/15 56/39/15
f 56/39/16 54/57/16 53/58/16 57/39/16
f 45/39/14 46/42/14 51/42/14 55/39/14
f 59/59/17 62/60/17 61/61/17 60/62/17
f 57/39/18 53/58/18 60/62/18 61/61/18
f 62/60/19 59/59/19 52/63/19 58/64/19
f 63/56/20 66/65/20 65/66/20 64/67/20
f 46/42/10 39/56/10 49/56/10 63/56/10 64/67/10 52/63/10 59/59/10 60/62/10 53/58/10 54/57/10 51/42/10
f 58/64/20 52/63/20 64/67/20 65/66/20
f 50/65/14 66/65/14 63/56/14 49/56/14
f 58/68/12 65/69/12 66/55/12 50/55/12 37/55/12 45/48/12 55/48/12 56/70/12 57/71/12 61/72/12 62/73/12
o Head
v 0.565370 1.061991 0.294067
v 0.565370 1.061991 -0.005409
v 0.841410 1.061991 0.294067
v 0.841410 1.061991 -0.005409
v 0.565370 2.207587 0.294067
v 0.632838 2.275054 0.073326
v 0.565370 2.207587 -0.005409
v 0.841410 2.207587 0.294067
v 0.773942 2.275054 0.073326
v 0.841410 2.207587 -0.005409
v 0.567332 2.209549 0.294067
v 0.632838 2.275054 0.228562
v 0.773942 2.275054 0.228562
v 0.839447 2.209549 0.294067
vn -0.0000 -1.0000 -0.0000
vn -0.0000 0.7594 -0.6507
vn -1.0000 -0.0000 -0.0000
vn -0.0000 -0.0000 -1.0000
vn 1.0000 -0.0000 -0.0000
vn -0.0000 0.7071 0.7071
vn -0.0000 -0.0000 1.0000
vn -0.7071 0.7071 -0.0000
vn -0.0000 1.0000 -0.0000
vn 0.7071 0.7071 -0.0000
vt 0.125000 0.500000
vt 0.375000 0.500000
vt 0.375000 0.750000
vt 0.125000 0.750000
vt 0.625000 0.251290
vt 0.665736 0.518648
vt 0.611096 0.500000
vt 0.611096 0.250000
vt 0.375000 0.000000
vt 0.611096 0.000000
vt 0.375000 0.250000
vt 0.611096 0.750000
vt 0.665736 0.720569
vt 0.625000 0.938897
vt 0.611500 0.998223
vt 0.612685 0.750592
vt 0.611096 1.000000
vt 0.375000 1.000000
vt 0.611500 0.000000
vt 0.625000 0.074571
vt 0.813897 0.558523
vt 0.813897 0.693179
s 0
f 68/74/21 70/75/21 69/76/21 67/77/21
f 72/78/22 75/79/22 76/80/22 73/81/22
f 67/82/23 71/83/23 73/81/23 68/84/23
f 68/84/24 73/81/24 76/80/24 70/75/24
f 70/75/25 76/80/25 74/85/25 69/76/25
f 79/86/26 78/87/26 77/88/26 80/89/26
f 69/76/27 74/85/27 80/89/27 77/88/27 71/90/27 67/91/27
f 77/92/28 78/93/28 72/78/28 73/81/28 71/83/28
f 75/79/29 72/94/29 78/95/29 79/86/29
f 75/79/30 79/86/30 80/89/30 74/85/30 76/80/30
o Cylinder
v 0.686971 0.985601 0.047419
v 0.686971 1.064498 0.047419
v 0.703657 0.985601 0.049387
v 0.703657 1.064498 0.049387
v 0.719701 0.985601 0.055216
v 0.719701 1.064498 0.055216
v 0.734488 0.985601 0.064682
v 0.734488 1.064498 0.064682
v 0.747448 0.985601 0.077421
v 0.747448 1.064498 0.077421
v 0.758084 0.985601 0.092943
v 0.758084 1.064498 0.092943
v 0.765988 0.985601 0.110653
v 0.765988 1.064498 0.110653
v 0.770855 0.985601 0.129868
v 0.770855 1.064498 0.129868
v 0.772498 0.985601 0.149852
v 0.772498 1.064498 0.149852
v 0.770855 0.985601 0.169836
v 0.770855 1.064498 0.169836
v 0.765988 0.985601 0.189052
v 0.765988 1.064498 0.189052
v 0.758084 0.985601 0.206761
v 0.758084 1.064498 0.206761
v 0.747448 0.985601 0.222283
v 0.747448 1.064498 0.222283
v 0.734488 0.985601 0.235022
v 0.734488 1.064498 0.235022
v 0.719701 0.985601 0.244488
v 0.719701 1.064498 0.244488
v 0.703657 0.985601 0.250317
v 0.703657 1.064498 0.250317
v 0.686971 0.985601 0.252285
v 0.686971 1.064498 0.252285
v 0.670286 0.985601 0.250317
v 0.670286 1.064498 0.250317
v 0.654241 0.985601 0.244488
v 0.654241 1.064498 0.244488
v 0.639455 0.985601 0.235022
v 0.639455 1.064498 0.235022
v 0.626494 0.985601 0.222283
v 0.626494 1.064498 0.222283
v 0.615858 0.985601 0.206761
v 0.615858 1.064498 0.206761
v 0.607954 0.985601 0.189052
v 0.607954 1.064498 0.189052
v 0.603087 0.985601 0.169836
v 0.603087 1.064498 0.169836
v 0.601444 0.985601 0.149852
v 0.601444 1.064498 0.149852
v 0.603087 0.985601 0.129868
v 0.603087 1.064498 0.129868
v 0.607954 0.985601 0.110653
v 0.607954 1.064498 0.110653
v 0.615858 0.985601 0.092943
v 0.615858 1.064498 0.092943
v 0.626494 0.985601 0.077421
v 0.626494 1.064498 0.077421
v 0.639455 0.985601 0.064682
v 0.639455 1.064498 0.064682
v 0.654241 0.985601 0.055216
v 0.654241 1.064498 0.055216
v 0.670286 0.985601 0.049387
v 0.670286 1.064498 0.049387
vn 0.1171 -0.0000 -0.9931
vn 0.3415 -0.0000 -0.9399
vn 0.5392 -0.0000 -0.8422
vn 0.7010 -0.0000 -0.7132
vn 0.8249 -0.0000 -0.5653
vn 0.9132 -0.0000 -0.4075
vn 0.9694 -0.0000 -0.2455
vn 0.9966 -0.0000 -0.0820
vn 0.9966 -0.0000 0.0820
vn 0.9694 -0.0000 0.2455
vn 0.9132 -0.0000 0.4075
vn 0.8249 -0.0000 0.5653
vn 0.7010 -0.0000 0.7132
vn 0.5392 -0.0000 0.8422
vn 0.3415 -0.0000 0.9399
vn 0.1171 -0.0000 0.9931
vn -0.1171 -0.0000 0.9931
vn -0.3415 -0.0000 0.9399
vn -0.5392 -0.0000 0.8422
vn -0.7010 -0.0000 0.7132
vn -0.8249 -0.0000 0.5653
vn -0.9132 -0.0000 0.4075
vn -0.9694 -0.0000 0.2455
vn -0.9966 -0.0000 0.0820
vn -0.9966 -0.0000 -0.0820
vn -0.9694 -0.0000 -0.2455
vn -0.9132 -0.0000 -0.4075
vn -0.8249 -0.0000 -0.5653
vn -0.7010 -0.0000 -0.7132
vn -0.5392 -0.0000 -0.8422
vn -0.0000 1.0000 -0.0000
vn -0.3415 -0.0000 -0.9399
vn -0.1171 -0.0000 -0.9931
vn -0.0000 -1.0000 -0.0000
vt 1.000000 0.500000
vt 1.000000 1.000000
vt 0.968750 1.000000
vt 0.968750 0.500000
vt 0.937500 1.000000
vt 0.937500 0.500000
vt 0.906250 1.000000
vt 0.906250 0.500000
vt 0.875000 1.000000
vt 0.875000 0.500000
vt 0.843750 1.000000
vt 0.843750 0.500000
vt 0.812500 1.000000
vt 0.812500 0.500000
vt 0.781250 1.000000
vt 0.781250 0.500000
vt 0.750000 1.000000
vt 0.750000 0.500000
vt 0.718750 1.000000
vt 0.718750 0.500000
vt 0.687500 1.000000
vt 0.687500 0.500000
vt 0.656250 1.000000
vt 0.656250 0.500000
vt 0.625000 1.000000
vt 0.625000 0.500000
vt 0.593750 1.000000
vt 0.593750 0.500000
vt 0.562500 1.000000
vt 0.562500 0.500000
vt 0.531250 1.000000
vt 0.531250 0.500000
vt 0.500000 1.000000
vt 0.500000 0.500000
vt 0.468750 1.000000
vt 0.468750 0.500000
vt 0.437500 1.000000
vt 0.437500 0.500000
vt 0.406250 1.000000
vt 0.406250 0.500000
vt 0.375000 1.000000
vt 0.375000 0.500000
vt 0.343750 1.000000
vt 0.343750 0.500000
vt 0.312500 1.000000
vt 0.312500 0.500000
vt 0.281250 1.000000
vt 0.281250 0.500000
vt 0.250000 1.000000
vt 0.250000 0.500000
vt 0.218750 1.000000
vt 0.218750 0.500000
vt 0.187500 1.000000
vt 0.187500 0.500000
vt 0.156250 1.000000
vt 0.156250 0.500000
vt 0.125000 1.000000
vt 0.125000 0.500000
vt 0.093750 1.000000
vt 0.093750 0.500000
vt 0.062500 1.000000
vt 0.062500 0.500000
vt 0.296822 0.485388
vt 0.250000 0.490000
vt 0.203178 0.485388
vt 0.158156 0.471731
vt 0.116663 0.449553
vt 0.080294 0.419706
vt 0.050447 0.383337
vt 0.028269 0.341844
vt 0.014612 0.296822
vt 0.010000 0.250000
vt 0.014612 0.203178
vt 0.028269 0.158156
vt 0.050447 0.116663
vt 0.080294 0.080294
vt 0.116663 0.050447
vt 0.158156 0.028269
vt 0.203178 0.014612
vt 0.250000 0.010000
vt 0.296822 0.014612
vt 0.341844 0.028269
vt 0.383337 0.050447
vt 0.419706 0.080294
vt 0.449553 0.116663
vt 0.471731 0.158156
vt 0.485388 0.203178
vt 0.490000 0.250000
vt 0.485388 0.296822
vt 0.471731 0.341844
vt 0.449553 0.383337
vt 0.419706 0.419706
vt 0.383337 0.449553
vt 0.341844 0.471731
vt 0.031250 1.000000
vt 0.031250 0.500000
vt 0.000000 1.000000
vt 0.000000 0.500000
vt 0.750000 0.490000
vt 0.796822 0.485388
vt 0.841844 0.471731
vt 0.883337 0.449553
vt 0.919706 0.419706
vt 0.949553 0.383337
vt 0.971731 0.341844
vt 0.985388 0.296822
vt 0.990000 0.250000
vt 0.985388 0.203178
vt 0.971731 0.158156
vt 0.949553 0.116663
vt 0.919706 0.080294
vt 0.883337 0.050447
vt 0.841844 0.028269
vt 0.796822 0.014612
vt 0.750000 0.010000
vt 0.703178 0.014612
vt 0.658156 0.028269
vt 0.616663 0.050447
vt 0.580294 0.080294
vt 0.550447 0.116663
vt 0.528269 0.158156
vt 0.514612 0.203178
vt 0.510000 0.250000
vt 0.514612 0.296822
vt 0.528269 0.341844
vt 0.550447 0.383337
vt 0.580294 0.419706
vt 0.616663 0.449553
vt 0.658156 0.471731
vt 0.703178 0.485388
s 0
f 81/96/31 82/97/31 84/98/31 83/99/31
f 83/99/32 84/98/32 86/100/32 85/101/32
f 85/101/33 86/100/33 88/102/33 87/103/33
f 87/103/34 88/102/34 90/104/34 89/105/34
f 89/105/35 90/104/35 92/106/35 91/107/35
f 91/107/36 92/106/36 94/108/36 93/109/36
f 93/109/37 94/108/37 96/110/37 95/111/37
f 95/111/38 96/110/38 98/112/38 97/113/38
f 97/113/39 98/112/39 100/114/39 99/115/39
f 99/115/40 100/114/40 102/116/40 101/117/40
f 101/117/41 102/116/41 104/118/41 103/119/41
f 103/119/42 104/118/42 106/120/42 105/121/42
f 105/121/43 106/120/43 108/122/43 107/123/43
f 107/123/44 108/122/44 110/124/44 109/125/44
f 109/125/45 110/124/45 112/126/45 111/127/45
f 111/127/46 112/126/46 114/128/46 113/129/46
f 113/129/47 114/128/47 116/130/47 115/131/47
f 115/131/48 116/130/48 118/132/48 117/133/48
f 117/133/49 118/132/49 120/134/49 119/135/49
f 119/135/50 120/134/50 122/136/50 121/137/50
f 121/137/51 122/136/51 124/138/51 123/139/51
f 123/139/52 124/138/52 126/140/52 125/141/52
f 125/141/53 126/140/53 128/142/53 127/143/53
f 127/143/54 128/142/54 130/144/54 129/145/54
f 129/145/55 130/144/55 132/146/55 131/147/55
f 131/147/56 132/146/56 134/148/56 133/149/56
f 133/149/57 134/148/57 136/150/57 135/151/57
f 135/151/58 136/150/58 138/152/58 137/153/58
f 137/153/59 138/152/59 140/154/59 139/155/59
f 139/155/60 140/154/60 142/156/60 141/157/60
f 84/158/61 82/159/61 144/160/61 142/161/61 140/162/61 138/163/61 136/164/61 134/165/61 132/166/61 130/167/61 128/168/61 126/169/61 124/170/61 122/171/61 120/172/61 118/173/61 116/174/61 114/175/61 112/176/61 110/177/61 108/178/61 106/179/61 104/180/61 102/181/61 100/182/61 98/183/61 96/184/61 94/185/61 92/186/61 90/187/61 88/188/61 86/189/61
f 141/157/62 142/156/62 144/190/62 143/191/62
f 143/191/63 144/190/63 82/192/63 81/193/63
f 81/194/64 83/195/64 85/196/64 87/197/64 89/198/64 91/199/64 93/200/64 95/201/64 97/202/64 99/203/64 101/204/64 103/205/64 105/206/64 107/207/64 109/208/64 111/209/64 113/210/64 115/211/64 117/212/64 119/213/64 121/214/64 123/215/64 125/216/64 127/217/64 129/218/64 131/219/64 133/220/64 135/221/64 137/222/64 139/223/64 141/224/64 143/225/64
